# xmcd
#
# Track frame offsets: 
#        150
#        15307
#        31358
#        49024
#        63202
#        81252
#        98049
#        113705
#        130233
#        146780
#        163367
#        180983
#        198804
#        212418
#
# Disc length: 3081 seconds
#
# Revision: 2
# Processed by: cddbd v1.5.2PL0 Copyright (c) Steve Scherf et al.
# Submitted via: ExactAudioCopy v1.0b3
#
DISCID=b40c070e
DTITLE=Roger Cicero - Artgerecht
DYEAR=2009
DGENRE=Pop
TTITLE0=Nicht artgerecht
TTITLE1=Ich bin dabei
TTITLE2=Boutique
TTITLE3=Hinterm Steuer
TTITLE4=Spontis zeugen Banker
TTITLE5=Und sonst so
TTITLE6=Wenn ich dich los waer
TTITLE7=Tabu
TTITLE8=Seine Ruhe
TTITLE9=Zu schoen um nett zu sein
TTITLE10=Ohne Worte
TTITLE11=Das ist nicht das, wonach es aussieht
TTITLE12=Internet Single Boerse
TTITLE13=Fuer 'nen Kerl
EXTD=
EXTT0=
EXTT1=
EXTT2=
EXTT3=
EXTT4=
EXTT5=
EXTT6=
EXTT7=
EXTT8=
EXTT9=
EXTT10=
EXTT11=
EXTT12=
EXTT13=
PLAYORDER=
